C:\Users\israe\Dropbox\PhDWork\ExperimentalData\subject14\055\P14S055W03_filtered35.mot
nRows=16
nColumns=28

name C:\Users\israe\Dropbox\PhDWork\ExperimentalData\subject14\055\P14S055W03_filtered35.mot
datacolumns 28
datarows 16
range 1.5500000000 1.5650000000
endheader
time	ground_force_1_vx	ground_force_1_vy	ground_force_1_vz	ground_force_1_px	ground_force_1_py	ground_force_1_pz	ground_moment_1_mx	ground_moment_1_my	ground_moment_1_mz	ground_force_2_vx	ground_force_2_vy	ground_force_2_vz	ground_force_2_px	ground_force_2_py	ground_force_2_pz	ground_moment_2_mx	ground_moment_2_my	ground_moment_2_mz	ground_force_3_vx	ground_force_3_vy	ground_force_3_vz	ground_force_3_px	ground_force_3_py	ground_force_3_pz	ground_moment_3_mx	ground_moment_3_my	ground_moment_3_mz
        1.5500000000	       -0.0000000000	        0.0000000000	       -0.0000000000	        0.1988394958	        0.0000558755	       -0.3004071327	        0.0000000000	       -0.0000000000	       -0.0000000000	       36.5906113938	      648.1030203843	      -46.5812379332	        0.2029003516	       -0.0000795827	        0.4543649445	      -18.6281849550	       -4.5221533506	      -54.1495240462	       -0.0000000000	        0.0000000000	        0.0000000000	        0.2076431971	        0.0000770316	        1.3583900146	       -0.0000000000	       -0.0000000000	       -0.0000000000	
        1.5510000000	       -0.0000000000	        0.0000000000	       -0.0000000000	        0.1988394958	        0.0000558755	       -0.3004071327	       -0.0000000000	       -0.0000000000	        0.0000000000	       36.6107525986	      648.9152982582	      -46.8155919541	        0.2029003516	       -0.0000795827	        0.4543649445	      -18.4125705890	       -4.5363893147	      -54.2454664829	       -0.0000000000	        0.0000000000	        0.0000000000	        0.2076431971	        0.0000770316	        1.3583900146	       -0.0000000000	       -0.0000000000	       -0.0000000000	
        1.5520000000	       -0.0000000000	        0.0000000000	       -0.0000000000	        0.1988394958	        0.0000558755	       -0.3004071327	       -0.0000000000	       -0.0000000000	        0.0000000000	       36.6243210907	      649.6733424284	      -47.0425742308	        0.2029003516	       -0.0000795827	        0.4543649445	      -18.1949841759	       -4.5501585046	      -54.3409225563	       -0.0000000000	        0.0000000000	        0.0000000000	        0.2076431971	        0.0000770316	        1.3583900146	       -0.0000000000	       -0.0000000000	       -0.0000000000	
        1.5530000000	       -0.0000000000	        0.0000000001	       -0.0000000000	        0.1988394958	        0.0000558755	       -0.3004071327	       -0.0000000000	       -0.0000000000	        0.0000000000	       36.6306280367	      650.3857150654	      -47.2624968414	        0.2029003516	       -0.0000795827	        0.4543649445	      -17.9769079371	       -4.5630536457	      -54.4352011331	       -0.0000000000	        0.0000000000	       -0.0000000000	        0.2076431971	        0.0000770316	        1.3583900146	        0.0000000000	       -0.0000000000	        0.0000000000	
        1.5540000000	        0.0000000000	        0.0000000001	       -0.0000000000	        0.1988394958	        0.0000558755	       -0.3004071327	       -0.0000000000	       -0.0000000000	        0.0000000000	       36.6300113853	      651.0647494066	      -47.4767555727	        0.2029003516	       -0.0000795827	        0.4543649445	      -17.7596453554	       -4.5748080003	      -54.5271118616	        0.0000000000	        0.0000000000	       -0.0000000000	        0.2076431971	        0.0000770316	        1.3583900146	        0.0000000000	       -0.0000000000	        0.0000000000	
        1.5550000000	        0.0000000000	        0.0000000001	       -0.0000000000	        0.1988394958	        0.0000558755	       -0.3004071327	       -0.0000000000	       -0.0000000000	        0.0000000000	       36.6229011815	      651.7191863356	      -47.6875058991	        0.2029003516	       -0.0000795827	        0.4543649445	      -17.5441318224	       -4.5854350447	      -54.6151709593	        0.0000000000	        0.0000000000	       -0.0000000000	        0.2076431971	        0.0000770316	        1.3583900146	        0.0000000000	       -0.0000000000	        0.0000000000	
        1.5560000000	        0.0000000000	        0.0000000002	       -0.0000000000	        0.1988394958	        0.0000558755	       -0.3004071327	       -0.0000000001	       -0.0000000000	        0.0000000000	       36.6089518902	      652.3490639105	      -47.8977223900	        0.2029003516	       -0.0000795827	        0.4543649445	      -17.3309180303	       -4.5951656665	      -54.6979484763	        0.0000000000	        0.0000000000	       -0.0000000000	        0.2076431971	        0.0000770316	        1.3583900146	        0.0000000000	        0.0000000000	        0.0000000000	
        1.5570000000	        0.0000000000	        0.0000000002	       -0.0000000000	        0.1988394958	        0.0000558755	       -0.3004071327	       -0.0000000001	       -0.0000000000	        0.0000000000	       36.5871348960	      652.9466686456	      -48.1112836959	        0.2029003516	       -0.0000795827	        0.4543649445	      -17.1200968579	       -4.6043239250	      -54.7744890407	        0.0000000000	        0.0000000000	       -0.0000000000	        0.2076431971	        0.0000770316	        1.3583900146	        0.0000000000	        0.0000000000	        0.0000000000	
        1.5580000000	        0.0000000000	        0.0000000003	       -0.0000000001	        0.1988394958	        0.0000558755	       -0.3004071327	       -0.0000000001	       -0.0000000000	        0.0000000000	       36.5559378199	      653.5005984135	      -48.3319727936	        0.2029003516	       -0.0000795827	        0.4543649445	      -16.9114717100	       -4.6132752399	      -54.8444411851	        0.0000000000	        0.0000000000	       -0.0000000000	        0.2076431971	        0.0000770316	        1.3583900146	        0.0000000000	        0.0000000000	        0.0000000000	
        1.5590000000	        0.0000000000	        0.0000000004	       -0.0000000001	        0.1988394958	        0.0000558755	       -0.3004071327	       -0.0000000001	       -0.0000000000	        0.0000000000	       36.5132590396	      653.9998942848	      -48.5623603744	        0.2029003516	       -0.0000795827	        0.4543649445	      -16.7049330613	       -4.6224519304	      -54.9078367393	        0.0000000000	        0.0000000000	       -0.0000000000	        0.2076431971	        0.0000770316	        1.3583900146	        0.0000000000	        0.0000000000	        0.0000000000	
        1.5600000000	        0.0000000000	        0.0000000004	       -0.0000000001	        0.1988394958	        0.0000558755	       -0.3004071327	       -0.0000000001	       -0.0000000000	        0.0000000000	       36.4565794450	      654.4372708499	      -48.8035782064	        0.2029003516	       -0.0000795827	        0.4543649445	      -16.5005986326	       -4.6324197921	      -54.9648955925	        0.0000000000	        0.0000000000	       -0.0000000000	        0.2076431971	        0.0000770316	        1.3583900146	        0.0000000000	        0.0000000000	        0.0000000000	
        1.5610000000	        0.0000000000	        0.0000000005	       -0.0000000001	        0.1988394958	        0.0000558755	       -0.3004071327	       -0.0000000001	       -0.0000000000	        0.0000000000	       36.3837147846	      654.8111154421	      -49.0554260332	        0.2029003516	       -0.0000795827	        0.4543649445	      -16.2985747321	       -4.6438550191	      -55.0159846896	        0.0000000000	        0.0000000000	       -0.0000000000	        0.2076431971	        0.0000770316	        1.3583900146	        0.0000000000	        0.0000000000	        0.0000000000	
        1.5620000000	        0.0000000000	        0.0000000005	       -0.0000000001	        0.1988394958	        0.0000558755	       -0.3004071327	       -0.0000000001	       -0.0000000000	        0.0000000000	       36.2937137012	      655.1259076968	      -49.3166747873	        0.2029003516	       -0.0000795827	        0.4543649445	      -16.0985773797	       -4.6573679895	      -55.0615884543	        0.0000000000	        0.0000000000	       -0.0000000000	        0.2076431971	        0.0000770316	        1.3583900146	        0.0000000000	        0.0000000000	        0.0000000000	
        1.5630000000	        0.0000000000	        0.0000000005	       -0.0000000001	        0.1988394958	        0.0000558755	       -0.3004071327	       -0.0000000001	       -0.0000000000	        0.0000000000	       36.1871108827	      655.3902976609	      -49.5857217743	        0.2029003516	       -0.0000795827	        0.4543649445	      -15.8998276537	       -4.6732921953	      -55.1021842921	        0.0000000000	        0.0000000000	       -0.0000000000	        0.2076431971	        0.0000770316	        1.3583900146	        0.0000000000	        0.0000000000	        0.0000000000	
        1.5640000000	        0.0000000000	        0.0000000004	       -0.0000000000	        0.1988394958	        0.0000558755	       -0.3004071327	       -0.0000000001	       -0.0000000000	        0.0000000000	       36.0655100495	      655.6134628594	      -49.8610277339	        0.2029003516	       -0.0000795827	        0.4543649445	      -15.7013034837	       -4.6915970827	      -55.1381734894	        0.0000000000	        0.0000000000	       -0.0000000000	        0.2076431971	        0.0000770316	        1.3583900146	        0.0000000000	        0.0000000000	        0.0000000000	
        1.5650000000	        0.0000000000	        0.0000000003	       -0.0000000000	        0.1988394958	        0.0000558755	       -0.3004071327	       -0.0000000001	       -0.0000000000	        0.0000000000	       35.9310058715	      655.8020116367	      -50.1409958690	        0.2029003516	       -0.0000795827	        0.4543649445	      -15.5019533091	       -4.7119898674	      -55.1699563095	        0.0000000000	        0.0000000000	       -0.0000000000	        0.2076431971	        0.0000770316	        1.3583900146	        0.0000000000	        0.0000000000	        0.0000000000	
